<svg xmlns="http://www.w3.org/2000/svg" version="1.1" xmlns:xlink="http://www.w3.org/1999/xlink" xmlns:svgjs="http://svgjs.com/svgjs" width="1440" height="560" preserveAspectRatio="none" viewBox="0 0 1440 560"><g mask="url(&quot;#SvgjsMask1000&quot;)" fill="none"><rect width="1440" height="560" x="0" y="0" fill="#0e2a47"></rect><path d="M 0,162 C 57.6,135.8 172.8,32.2 288,31 C 403.2,29.8 460.8,156.2 576,156 C 691.2,155.8 748.8,9.2 864,30 C 979.2,50.8 1036.8,249.8 1152,260 C 1267.2,270.2 1382.4,116.8 1440,81L1440 560L0 560z" fill="#184a7e"></path><path d="M 0,403 C 96,433 288,564 480,553 C 672,542 768,370.8 960,348 C 1152,325.2 1344,420.8 1440,439L1440 560L0 560z" fill="#2264ab"></path></g><defs><mask id="SvgjsMask1000"><rect width="1440" height="560" fill="#ffffff"></rect></mask></defs></svg>